<svg width="68" height="68" viewBox="0 0 68 68" fill="none" xmlns="http://www.w3.org/2000/svg">
<path d="M-1.52588e-05 19.4136C1.16057 15.6061 3.0085 13.4607 5.83672 12.9656C5.88179 12.3409 5.98321 11.9283 5.98321 11.9283C6.15223 11.0678 6.55787 10.3016 7.08746 9.65324C5.03671 7.15421 5.27333 3.29957 8.58608 3.37029C9.7016 -1.28592 15.989 -0.896923 16.1806 3.18169C19.5384 2.55693 20.2708 7.43712 18.3891 9.81827L18.0398 9.85363C22.6033 14.3802 24.5864 23.1975 33.8148 23.1032C44.2037 22.9971 54.187 22.4785 60.835 18.1287C60.835 18.1287 60.2153 25.2958 56.0575 27.4765C56.0575 27.4765 60.2153 27.17 60.835 26.7457C59.697 31.0011 55.7532 34.844 53.7814 35.339C53.7814 35.339 57.8828 35.5748 58.9195 35.1504C51.4376 42.4943 50.8179 49.7792 34.8852 51.1348C33.3302 51.2645 31.5049 51.3352 29.5668 51.2763L27.7301 55.5553C27.5048 56.0857 26.9301 56.3686 26.4005 56.2036L26.0287 56.0975L25.1949 60.5769L27.0315 62.1919C27.5048 62.6044 27.5724 63.3589 27.1667 63.854C26.9414 64.1369 26.6259 64.2783 26.2991 64.2783C26.04 64.2783 25.7921 64.184 25.578 64.0072L23.5723 62.2508L19.5384 62.5101C19.5384 62.5101 19.4933 62.5101 19.4708 62.5101C18.8849 62.5101 18.3891 62.0268 18.344 61.4021C18.3102 60.7537 18.7835 60.1879 19.4032 60.1526L23.0089 59.9168L23.8427 55.4256C23.516 55.2488 23.2793 54.9305 23.2343 54.5415L22.6821 50.345C17.9947 49.1309 13.6679 46.5493 11.6509 41.3744C2.89582 34.066 5.47615 21.8773 7.14379 17.9401C5.40855 17.8694 2.11834 18.1287 -1.52588e-05 19.4136ZM20.1694 36.0581C21.7469 38.5571 25.0822 41.6102 32.0232 41.9638C32.3274 41.9756 32.6429 41.9874 32.9471 41.9874C37.4205 41.9874 41.8487 40.3607 42.7389 38.8401C42.9192 38.5336 42.953 38.1564 42.8403 37.8263C42.7276 37.4844 42.4685 37.2251 42.1417 37.1072C41.6234 36.9186 41.1501 36.7182 40.7332 36.5178C42.8403 35.4687 45.8037 33.5827 46.615 31.0365C46.7277 30.671 46.6714 30.282 46.4573 29.9756C46.2432 29.6691 45.9051 29.4805 45.5446 29.4805C45.2065 29.4805 44.7108 29.504 44.091 29.5512C41.4656 29.7162 36.0007 30.0463 32.9021 28.2663C32.3612 27.948 31.6739 28.1602 31.3696 28.726C31.0654 29.2919 31.2682 30.0109 31.8091 30.3292C35.1556 32.2506 40.1698 32.1327 43.3473 31.9559C41.7473 33.5473 39.0092 34.7968 37.8036 35.233C37.4092 35.3744 37.1275 35.7281 37.0599 36.1642C36.9923 36.5886 37.1613 37.0247 37.4993 37.284C37.5444 37.3194 38.2092 37.8381 39.3247 38.4275C37.736 39.064 35.0655 39.7477 32.1359 39.5945C27.3808 39.3469 23.8991 37.673 22.0511 34.7379C20.3497 32.0502 20.4736 29.0679 21.0821 27.3351C21.2962 26.7221 21.0032 26.0502 20.4173 25.8262C19.8314 25.6023 19.1891 25.9087 18.975 26.5217C18.175 28.7732 18.0173 32.616 20.1807 36.0463L20.1694 36.0581ZM12.958 15.5236C14.1975 15.5236 15.2116 14.4627 15.2116 13.166C15.2116 11.8694 14.1975 10.8085 12.958 10.8085C11.7185 10.8085 10.7044 11.8694 10.7044 13.166C10.7044 14.4627 11.7185 15.5236 12.958 15.5236Z" fill="#40534D"/>
<path d="M42.8417 61.8874C42.8417 61.8874 46.8823 64.2805 50.785 61.5043C50.785 61.5521 49.4077 66.5777 46.8132 66.8171C44.2191 67.0561 42.8417 61.8874 42.8417 61.8874Z" fill="#40534D"/>
<path d="M37.7451 59.5659C37.7451 59.5659 40.5689 61.9529 42.4113 61.2707C42.3252 62.1144 42.6812 62.5334 42.6812 62.5334C42.6812 62.5334 39.639 65.0761 37.7451 59.5659Z" fill="#40534D"/>
<path d="M50.785 62.8325L51.313 61.1096C51.313 61.1096 54.8256 61.5043 55.9618 60.2119C56.2032 60.3662 54.5498 65.0221 50.785 62.8325Z" fill="#40534D"/>
<path d="M56.4548 59.4942L55.9844 61.325C55.9844 61.325 59.9559 62.8325 61.0234 58.489C59.8531 59.8889 56.4548 59.4942 56.4548 59.4942Z" fill="#40534D"/>
<path d="M61.5055 58.0107C61.5055 58.0107 61.2526 59.3263 60.9316 59.7818C60.9316 59.7818 64.9948 61.7922 65.9136 57.3647C65.8139 57.7761 63.2448 58.505 61.5055 58.0107Z" fill="#40534D"/>
<path d="M50.109 57.9911C50.1021 57.9372 50.0976 57.8818 50.0896 57.8282C50.0055 57.264 49.8513 56.7256 49.6439 56.2306C49.5063 55.8996 49.3441 55.5904 49.1628 55.3061C49.1281 55.2522 49.0954 55.1957 49.0596 55.1435C49.0266 55.0957 48.9908 55.0526 48.9572 55.0067C48.9544 55.003 48.9516 54.9991 48.9488 54.9958C48.2972 54.1199 47.4496 53.5593 46.5631 53.5593C45.9861 53.5593 45.44 53.7603 44.9541 54.113C44.9131 54.1423 44.8731 54.1738 44.8332 54.206C44.795 54.2361 44.7578 54.2687 44.7206 54.3009C44.4806 54.5084 44.2576 54.7532 44.0568 55.0338C44.0131 55.0954 43.9714 55.1602 43.9297 55.2246C43.8863 55.2913 43.8442 55.359 43.8036 55.4289C43.3169 56.2661 43.0043 57.3256 42.9564 58.4952C42.9293 59.1586 42.9821 59.7383 43.113 60.2311C43.1259 60.2786 43.1422 60.322 43.1564 60.368C43.171 60.4143 43.1853 60.4611 43.2009 60.506C43.3326 60.8804 43.5139 61.1997 43.7498 61.4561C44.3274 62.084 45.2396 62.39 46.5381 62.39C47.5329 62.39 48.6452 62.29 49.3552 61.5481C49.7064 61.1806 49.9402 60.6783 50.0632 60.0301C50.0726 59.9798 50.0795 59.9262 50.0878 59.8737C50.0962 59.8212 50.1059 59.7712 50.1128 59.7166C50.1483 59.4359 50.1663 59.1318 50.1656 58.8008C50.1653 58.5806 50.1497 58.3623 50.1278 58.1458C50.1219 58.0943 50.1156 58.0426 50.109 57.9911Z" fill="#40534D"/>
<path d="M57.5827 49.826C58.2503 49.826 58.8909 50.1012 59.4536 50.5694C59.761 49.9973 60.1449 49.516 60.5829 49.151C59.9191 47.6939 58.7853 46.6674 57.5827 46.6674C56.4141 46.6674 55.3685 47.4821 54.7061 48.7473C55.1622 49.1825 55.5561 49.75 55.8587 50.4043C56.3797 50.036 56.9644 49.826 57.5827 49.826Z" fill="#40534D"/>
<path d="M52.624 51.2618C52.9963 51.2618 53.36 51.3491 53.7067 51.5048C53.7519 51.525 53.7956 51.5486 53.8401 51.5714C53.8852 51.5942 53.9304 51.6196 53.9752 51.6453C54.1545 51.7477 54.3281 51.8669 54.4949 52.0052C54.8023 51.4331 55.1861 50.9518 55.6242 50.5868C55.3459 49.976 54.9868 49.44 54.5723 49.0247C54.5393 48.9918 54.5046 48.9631 54.4709 48.9316C54.4337 48.8972 54.3969 48.8625 54.3594 48.8299C53.8338 48.374 53.2381 48.1031 52.6243 48.1031C51.4558 48.1031 50.4102 48.9179 49.7477 50.1831C50.2038 50.6183 50.5978 51.1858 50.9003 51.8401C51.421 51.4718 52.006 51.2618 52.624 51.2618Z" fill="#40534D"/>
<path d="M46.5631 53.2721C47.3857 53.2721 48.1666 53.6896 48.8106 54.3733C48.8686 54.4349 48.9276 54.4942 48.9836 54.5601C49.0051 54.5855 49.0253 54.6137 49.0464 54.6402C49.0652 54.5768 49.0819 54.512 49.1024 54.4497C49.439 53.4304 49.9885 52.587 50.6655 52.0232C50.3873 51.4124 50.0281 50.8764 49.6137 50.4611C49.5807 50.4282 49.5456 50.3996 49.5123 50.368C49.4751 50.3336 49.4386 50.2989 49.4008 50.2663C48.8752 49.8104 48.2795 49.5396 47.6653 49.5396C46.1379 49.5396 44.8207 50.9289 44.2958 52.9013C44.4997 53.1892 44.6814 53.5089 44.8395 53.8511C45.3605 53.4822 45.9451 53.2721 46.5631 53.2721Z" fill="#40534D"/>
<path d="M42.6809 58.4829C42.7372 57.1076 43.1474 55.8772 43.7776 54.9549C43.8241 54.8868 43.87 54.8177 43.9189 54.7529C43.9631 54.6942 44.0103 54.6395 44.0565 54.5841C44.2274 54.3788 44.4105 54.1945 44.6043 54.033C44.4851 53.7716 44.3511 53.526 44.2038 53.2961C44.169 53.2422 44.1367 53.1853 44.1006 53.1332C44.0652 53.0817 44.0266 53.035 43.9898 52.9854C43.3381 52.1095 42.4902 51.549 41.6041 51.549C39.6949 51.549 38.1102 53.7172 37.997 56.4848C37.9425 57.8177 38.2092 58.8139 38.79 59.4457C39.3677 60.074 40.2799 60.3796 41.5784 60.3796C41.9924 60.3796 42.4256 60.3586 42.8428 60.2847C42.7087 59.7669 42.6531 59.1666 42.6809 58.4829Z" fill="#40534D"/>
<path d="M62.5414 48.6775C61.9644 48.6775 61.4183 48.8781 60.932 49.2308C60.8914 49.2605 60.8514 49.292 60.8108 49.3238C60.7732 49.3543 60.7354 49.3865 60.6986 49.4187C60.298 49.7656 59.9469 50.2193 59.6648 50.7574C60.2737 51.3382 60.7719 52.1548 61.088 53.0992C61.1178 53.1886 61.1463 53.2784 61.1731 53.37C61.1988 53.4591 61.2231 53.5489 61.2457 53.6398C61.3808 54.1851 61.4583 54.7616 61.4596 55.354C61.4617 56.1568 61.3575 56.8191 61.1491 57.3597C61.5468 57.4575 61.9991 57.5078 62.5156 57.5078C63.5102 57.5078 64.6228 57.4078 65.3325 56.6659C65.881 56.0927 66.146 55.1943 66.1429 53.919C66.1359 51.176 64.4192 48.6775 62.5414 48.6775Z" fill="#40534D"/>
<path d="M61.0619 54.1191C61.0466 54.0398 61.0338 53.9602 61.016 53.8823C60.9973 53.8001 60.9747 53.7208 60.9528 53.6401C60.6756 52.595 60.1678 51.6727 59.5307 51.0347C59.4977 51.0018 59.4626 50.9732 59.4289 50.9417C59.3921 50.9073 59.3553 50.8725 59.3178 50.8395C58.7918 50.384 58.1961 50.1128 57.5827 50.1128C57.0057 50.1128 56.4596 50.3134 55.9733 50.6665C55.9323 50.6961 55.8927 50.7273 55.8521 50.7595C55.8142 50.7899 55.7767 50.8222 55.7395 50.8544C55.339 51.2013 54.9878 51.655 54.7057 52.1931C55.315 52.7739 55.8132 53.5905 56.1293 54.5348C56.1591 54.6239 56.1876 54.7141 56.214 54.8057C56.2397 54.8944 56.2644 54.9846 56.2866 55.0754C56.312 55.1776 56.3339 55.2811 56.3547 55.3854C56.3651 55.4368 56.3752 55.4879 56.3842 55.54C56.3929 55.5893 56.4051 55.6374 56.4124 55.687C56.4686 56.0455 56.4996 56.4145 56.5009 56.7897C56.5027 57.5924 56.3985 58.2547 56.1901 58.7954C56.5881 58.8931 57.0404 58.9435 57.5566 58.9435C58.5511 58.9435 59.6637 58.8432 60.3738 58.1016C60.5256 57.943 60.6534 57.7565 60.7621 57.5472C60.7837 57.5048 60.8038 57.461 60.824 57.4168C60.8441 57.373 60.8649 57.331 60.883 57.2854C61.0862 56.7748 61.1859 56.1361 61.1838 55.3546C61.1835 54.9339 61.1376 54.5207 61.0619 54.1191Z" fill="#40534D"/>
<path d="M56.1168 55.627C56.1126 55.6031 56.1077 55.5792 56.1032 55.5556C56.0977 55.5289 56.0932 55.5021 56.0876 55.4749C56.0772 55.4228 56.0688 55.3699 56.0574 55.3181C56.0567 55.3163 56.0567 55.3141 56.0563 55.312C56.0379 55.2319 56.0153 55.1544 55.9942 55.0762C55.7173 54.0308 55.2091 53.1089 54.572 52.4709C54.539 52.4379 54.5043 52.4093 54.4706 52.3778C54.4334 52.3434 54.3966 52.3087 54.3591 52.2757C54.2333 52.1663 54.1048 52.065 53.9714 51.9788C53.9273 51.9502 53.8815 51.9281 53.8363 51.9024C53.7905 51.8756 53.7446 51.8473 53.6981 51.8234C53.3538 51.6482 52.9922 51.5493 52.624 51.5493C52.047 51.5493 51.5009 51.7499 51.0146 52.103C50.9736 52.1327 50.934 52.1638 50.8934 52.196C50.8555 52.2265 50.818 52.2587 50.7809 52.2909C50.0913 52.8877 49.5484 53.8063 49.2545 54.9111C49.5015 55.2598 49.7155 55.6545 49.8937 56.08C49.9336 56.1748 49.9708 56.2704 50.0066 56.3682C50.0347 56.4464 50.0632 56.5243 50.0892 56.6039C50.1959 56.9331 50.2803 57.276 50.3393 57.6312C50.3491 57.6884 50.3578 57.746 50.3661 57.8043C50.3737 57.8586 50.3786 57.9148 50.3852 57.9698C50.4179 58.2425 50.4397 58.5195 50.4408 58.8012C50.4418 59.1981 50.4144 59.5573 50.3644 59.8886C50.9195 60.217 51.6559 60.3803 52.5986 60.3803C53.5931 60.3803 54.7058 60.2804 55.4154 59.5384C55.5672 59.3798 55.6951 59.1937 55.8038 58.9841C55.8253 58.9421 55.8458 58.8982 55.8656 58.8541C55.8858 58.8103 55.9066 58.7682 55.9247 58.7226C56.1279 58.2117 56.2276 57.5733 56.2259 56.7915C56.2245 56.395 56.1842 56.0054 56.1168 55.627Z" fill="#40534D"/>
</svg>
