<svg width="70" height="85" viewBox="0 0 70 85" fill="none" xmlns="http://www.w3.org/2000/svg">
<g clip-path="url(#clip0_11_8205)">
<path d="M14.7495 25.0714C14.4571 25.0714 14.1746 25.1893 13.9682 25.3957C13.7593 25.6046 13.6438 25.8847 13.6438 26.1795V53.1455C13.6438 53.4379 13.7593 53.7205 13.9682 53.9269C14.1746 54.1357 14.4571 54.2512 14.7495 54.2512H23.6612C24.2706 54.2512 24.7669 53.7549 24.7669 53.1456V26.1795C24.7669 25.5677 24.2706 25.0739 23.6612 25.0739L14.7495 25.0714ZM31.1451 14.3563C30.8503 14.3563 30.5702 14.4743 30.3613 14.6807C30.1549 14.8895 30.037 15.1696 30.037 15.4645V53.1455C30.037 53.4379 30.1549 53.7205 30.3613 53.9269C30.5702 54.1357 30.8503 54.2512 31.1451 54.2512H40.0543C40.6661 54.2512 41.1624 53.7549 41.1624 53.1456V15.4645C41.1624 14.8527 40.6661 14.3588 40.0543 14.3588L31.1451 14.3563ZM47.5382 35.411C47.2458 35.411 46.9633 35.5264 46.7569 35.7353C46.548 35.9417 46.4325 36.2242 46.4325 36.5166V53.1462C46.4325 53.4386 46.548 53.7212 46.7569 53.9276C46.9633 54.1364 47.2458 54.2519 47.5382 54.2519H56.4499C57.0617 54.2519 57.5556 53.7556 57.5556 53.1463V36.5167C57.5556 35.9073 57.0617 35.411 56.4499 35.411L47.5382 35.411ZM6.22023 14.3148V14.3173H6.21777C5.60843 14.3173 5.11456 14.8111 5.11456 15.4229V60.0577C5.11456 60.6695 5.61088 61.1658 6.22023 61.1658C6.23251 61.1658 62.9683 61.1633 62.9683 61.1633C63.5776 61.1633 64.074 60.6694 64.074 60.0577C64.074 59.4458 63.5776 58.952 62.9683 58.952H7.32853V15.4231C7.32853 14.8113 6.83202 14.3148 6.22023 14.3148Z" fill="#317667"/>
<path d="M15.7767 84.1475V76.8747H18.646C19.1952 76.8747 19.664 76.973 20.0522 77.1695C20.4429 77.3636 20.74 77.6394 20.9436 77.9969C21.1495 78.352 21.2525 78.7699 21.2525 79.2504C21.2525 79.7334 21.1484 80.1489 20.94 80.4969C20.7317 80.8425 20.4298 81.1077 20.0345 81.2923C19.6415 81.477 19.1656 81.5693 18.6069 81.5693H16.6858V80.3335H18.3583C18.6519 80.3335 18.8957 80.2933 19.0899 80.2128C19.284 80.1323 19.4284 80.0116 19.5231 79.8506C19.6202 79.6896 19.6687 79.4896 19.6687 79.2504C19.6687 79.009 19.6202 78.8054 19.5231 78.6396C19.4284 78.4739 19.2828 78.3485 19.0863 78.2632C18.8922 78.1756 18.6472 78.1318 18.3512 78.1318H17.3143V84.1475H15.7767ZM19.7042 80.8378L21.5117 84.1475H19.8143L18.0458 80.8378H19.7042ZM24.7087 84.254C24.1476 84.254 23.6646 84.1404 23.2598 83.9131C22.8573 83.6834 22.5472 83.3591 22.3294 82.9401C22.1116 82.5187 22.0027 82.0203 22.0027 81.445C22.0027 80.884 22.1116 80.3915 22.3294 79.9678C22.5472 79.544 22.8538 79.2137 23.2491 78.977C23.6469 78.7403 24.1133 78.6219 24.6483 78.6219C25.0081 78.6219 25.3431 78.6799 25.6533 78.7959C25.9658 78.9095 26.238 79.0812 26.47 79.3108C26.7044 79.5405 26.8867 79.8293 27.0169 80.1773C27.1471 80.5229 27.2122 80.9278 27.2122 81.3918V81.8073H22.6064V80.8698H25.7882C25.7882 80.652 25.7409 80.459 25.6462 80.2909C25.5515 80.1228 25.4201 79.9914 25.252 79.8968C25.0863 79.7997 24.8933 79.7512 24.6731 79.7512C24.4435 79.7512 24.2399 79.8044 24.0624 79.911C23.8872 80.0151 23.7499 80.156 23.6504 80.3335C23.551 80.5087 23.5001 80.704 23.4977 80.9195V81.8108C23.4977 82.0807 23.5474 82.3139 23.6469 82.5104C23.7487 82.7069 23.8919 82.8584 24.0766 82.9649C24.2612 83.0715 24.4802 83.1247 24.7335 83.1247C24.9016 83.1247 25.0555 83.1011 25.1952 83.0537C25.3348 83.0064 25.4544 82.9353 25.5538 82.8406C25.6533 82.7459 25.729 82.6299 25.7811 82.4926L27.1803 82.585C27.1092 82.9211 26.9636 83.2147 26.7435 83.4656C26.5257 83.7142 26.2439 83.9084 25.8983 84.048C25.555 84.1853 25.1585 84.254 24.7087 84.254ZM28.1994 86.1929V78.6929H29.6909V79.6091H29.7584C29.8247 79.4623 29.9205 79.3132 30.046 79.1617C30.1739 79.0078 30.3396 78.8799 30.5432 78.7781C30.7491 78.674 31.0048 78.6219 31.3102 78.6219C31.7079 78.6219 32.0749 78.7261 32.4111 78.9344C32.7472 79.1404 33.016 79.4517 33.2172 79.8683C33.4184 80.2826 33.519 80.8023 33.519 81.4273C33.519 82.0357 33.4208 82.5494 33.2243 82.9685C33.0302 83.3852 32.765 83.7012 32.4288 83.9166C32.095 84.1297 31.721 84.2362 31.3067 84.2362C31.0131 84.2362 30.7633 84.1877 30.5574 84.0906C30.3538 83.9936 30.1869 83.8717 30.0567 83.7249C29.9265 83.5757 29.827 83.4254 29.7584 83.2739H29.7122V86.1929H28.1994ZM29.6803 81.4202C29.6803 81.7445 29.7252 82.0274 29.8152 82.2689C29.9052 82.5104 30.0354 82.6986 30.2058 82.8335C30.3763 82.9661 30.5834 83.0324 30.8273 83.0324C31.0735 83.0324 31.2818 82.9649 31.4523 82.83C31.6227 82.6927 31.7517 82.5033 31.8393 82.2618C31.9293 82.018 31.9743 81.7374 31.9743 81.4202C31.9743 81.1053 31.9305 80.8283 31.8429 80.5892C31.7553 80.3501 31.6263 80.1631 31.4558 80.0281C31.2854 79.8932 31.0758 79.8257 30.8273 79.8257C30.5811 79.8257 30.3727 79.8908 30.2023 80.021C30.0342 80.1512 29.9052 80.3359 29.8152 80.575C29.7252 80.8141 29.6803 81.0959 29.6803 81.4202ZM36.992 84.254C36.4404 84.254 35.9634 84.1368 35.5609 83.9024C35.1608 83.6657 34.8519 83.3366 34.6341 82.9152C34.4163 82.4914 34.3074 82.0002 34.3074 81.4415C34.3074 80.878 34.4163 80.3856 34.6341 79.9642C34.8519 79.5405 35.1608 79.2114 35.5609 78.977C35.9634 78.7403 36.4404 78.6219 36.992 78.6219C37.5437 78.6219 38.0195 78.7403 38.4196 78.977C38.8221 79.2114 39.1322 79.5405 39.35 79.9642C39.5678 80.3856 39.6767 80.878 39.6767 81.4415C39.6767 82.0002 39.5678 82.4914 39.35 82.9152C39.1322 83.3366 38.8221 83.6657 38.4196 83.9024C38.0195 84.1368 37.5437 84.254 36.992 84.254ZM36.9991 83.0821C37.2501 83.0821 37.4596 83.0111 37.6277 82.8691C37.7958 82.7246 37.9224 82.5281 38.0077 82.2796C38.0953 82.031 38.1391 81.7481 38.1391 81.4308C38.1391 81.1136 38.0953 80.8307 38.0077 80.5821C37.9224 80.3335 37.7958 80.137 37.6277 79.9926C37.4596 79.8482 37.2501 79.776 36.9991 79.776C36.7458 79.776 36.5328 79.8482 36.3599 79.9926C36.1895 80.137 36.0605 80.3335 35.9729 80.5821C35.8876 80.8307 35.845 81.1136 35.845 81.4308C35.845 81.7481 35.8876 82.031 35.9729 82.2796C36.0605 82.5281 36.1895 82.7246 36.3599 82.8691C36.5328 83.0111 36.7458 83.0821 36.9991 83.0821ZM40.6604 84.1475V78.6929H42.127V79.6446H42.1838C42.2832 79.3061 42.4501 79.0504 42.6845 78.8776C42.9189 78.7024 43.1888 78.6148 43.4942 78.6148C43.5699 78.6148 43.6516 78.6195 43.7392 78.629C43.8268 78.6385 43.9037 78.6515 43.97 78.6681V80.0104C43.899 79.9891 43.8008 79.9701 43.6753 79.9536C43.5498 79.937 43.435 79.9287 43.3308 79.9287C43.1083 79.9287 42.9094 79.9772 42.7342 80.0743C42.5614 80.169 42.4241 80.3016 42.3223 80.472C42.2229 80.6425 42.1731 80.839 42.1731 81.0615V84.1475H40.6604ZM47.9269 78.6929V79.8293H44.6421V78.6929H47.9269ZM45.3878 77.3861H46.9006V82.4713C46.9006 82.611 46.9219 82.7199 46.9645 82.798C47.0071 82.8738 47.0663 82.9271 47.1421 82.9578C47.2202 82.9886 47.3102 83.004 47.412 83.004C47.483 83.004 47.554 82.9981 47.625 82.9862C47.6961 82.972 47.7505 82.9614 47.7884 82.9543L48.0263 84.08C47.9506 84.1037 47.844 84.1309 47.7067 84.1617C47.5694 84.1948 47.4025 84.2149 47.206 84.222C46.8414 84.2362 46.5218 84.1877 46.2472 84.0764C45.9749 83.9652 45.7631 83.7923 45.6115 83.558C45.46 83.3236 45.3854 83.0277 45.3878 82.6702V77.3861ZM53.3823 80.2483L51.9974 80.3335C51.9737 80.2152 51.9228 80.1086 51.8447 80.0139C51.7665 79.9169 51.6636 79.8399 51.5357 79.7831C51.4102 79.7239 51.2599 79.6943 51.0847 79.6943C50.8504 79.6943 50.6527 79.7441 50.4917 79.8435C50.3307 79.9405 50.2502 80.0708 50.2502 80.2341C50.2502 80.3643 50.3023 80.4744 50.4065 80.5644C50.5106 80.6543 50.6894 80.7265 50.9427 80.781L51.9299 80.9798C52.4602 81.0887 52.8556 81.2639 53.116 81.5054C53.3764 81.7469 53.5066 82.0641 53.5066 82.4571C53.5066 82.8146 53.4013 83.1283 53.1905 83.3982C52.9822 83.6681 52.6958 83.8788 52.3312 84.0303C51.969 84.1794 51.5511 84.254 51.0776 84.254C50.3556 84.254 49.7803 84.1037 49.3518 83.803C48.9256 83.5 48.6759 83.088 48.6025 82.5672L50.0904 82.4891C50.1354 82.7093 50.2443 82.8773 50.4171 82.9933C50.5899 83.107 50.8113 83.1638 51.0812 83.1638C51.3463 83.1638 51.5594 83.1129 51.7204 83.0111C51.8837 82.9069 51.9666 82.7732 51.969 82.6098C51.9666 82.4725 51.9086 82.3601 51.795 82.2725C51.6813 82.1825 51.5061 82.1138 51.2694 82.0665L50.3248 81.8783C49.7921 81.7718 49.3956 81.5871 49.1352 81.3243C48.8771 81.0615 48.7481 80.7265 48.7481 80.3193C48.7481 79.969 48.8428 79.6671 49.0322 79.4138C49.2239 79.1605 49.4926 78.9652 49.8383 78.8279C50.1863 78.6905 50.5935 78.6219 51.0599 78.6219C51.7488 78.6219 52.2909 78.7675 52.6863 79.0587C53.084 79.3499 53.316 79.7464 53.3823 80.2483Z" fill="#317667"/>
</g>
<defs>
<clipPath id="clip0_11_8205">
<rect width="69.1904" height="84.9155" fill="white"/>
</clipPath>
</defs>
</svg>

